<?xml version="1.0" encoding="utf-8"?>
<!-- Generator: Adobe Illustrator 26.1.0, SVG Export Plug-In . SVG Version: 6.00 Build 0)  -->
<svg version="1.1" id="Layer_1" xmlns="http://www.w3.org/2000/svg" xmlns:xlink="http://www.w3.org/1999/xlink" x="0px" y="0px"
	 width="211.9px" height="46.7px" viewBox="0 0 211.9 46.7" style="enable-background:new 0 0 211.9 46.7;" xml:space="preserve">
<style type="text/css">
	.st0{fill:url(#SVGID_1_);}
	.st1{fill:#DCE8E4;}
	.st2{fill:url(#SVGID_00000029734427199443519270000014878920768325099431_);}
	.st3{fill:url(#SVGID_00000138565902916928965960000001216222545197426848_);}
	.st4{fill:#FFFFFF;}
</style>
<linearGradient id="SVGID_1_" gradientUnits="userSpaceOnUse" x1="41.8625" y1="343.8835" x2="11.2556" y2="324.0506" gradientTransform="matrix(1 0 0 -1 0 337.875)">
	<stop  offset="0" style="stop-color:#5AD9FD"/>
	<stop  offset="1" style="stop-color:#0A42A2"/>
</linearGradient>
<path class="st0" d="M11.7,23.3c0,0-0.2-0.1-0.3-0.2c-1.7-1.4-3.2-3-4.4-4.8c-1-1.5-1.7-3.1-2-4.8c-0.4-2-0.2-3.9,0.7-5.8
	C6,7,6.4,6.3,6.9,5.7c0,0,0.1-0.1,0.1-0.1c0,0,0,0,0,0c0,0,0.1,0,0.1-0.1c0.8-0.9,1.8-1.7,2.8-2.4c2-1.4,4.3-2.4,6.7-2.8
	C18.4,0,20.2-0.1,22,0.2c1.7,0.3,3.2,1,4.5,2c1.5,1.1,2.6,2.6,3.3,4.4c0.6,1.6,0.7,3.3,0.3,4.9c-0.3,1.3-1.1,2.3-2.1,3.1
	c-1.1,1-2.4,1.6-3.8,2.2c-1.6,0.7-3.2,1.2-4.8,1.8c-2.5,0.9-4.8,2.3-6.9,4C12.2,22.8,11.7,23.3,11.7,23.3z"/>
<path class="st1" d="M7,5.4C7,5.5,7,5.5,7,5.4C7,5.5,7,5.5,7,5.4z"/>
<linearGradient id="SVGID_00000158001610276636269530000005412872816030273409_" gradientUnits="userSpaceOnUse" x1="8.5527" y1="302.8867" x2="30.3673" y2="302.8867" gradientTransform="matrix(1 0 0 -1 0 337.875)">
	<stop  offset="0" style="stop-color:#FEE372"/>
	<stop  offset="1" style="stop-color:#FAAF42"/>
</linearGradient>
<path style="fill:url(#SVGID_00000158001610276636269530000005412872816030273409_);" d="M30.3,35.9c-0.1-0.7-0.4-1.4-0.7-2.1
	c-0.2-0.4-0.5-0.8-0.9-1.2c-0.5-0.5-1-0.9-1.5-1.3c-0.6-0.4-1.3-0.8-1.9-1.1c-0.8-0.4-1.6-0.7-2.4-1c-0.8-0.3-1.5-0.5-2.2-0.8
	c-1.3-0.5-2.7-1-3.9-1.7c-1-0.6-2-1.2-2.9-1.8c-0.7-0.5-1.4-1-2-1.6c0,0-6,8.2-1.5,20.5c0.3,0.2,0.6,0.4,1,0.6
	c0.5,0.3,1,0.5,1.4,0.7c1.2,0.6,2.5,1,3.8,1.2c1.2,0.2,2.3,0.3,3.6,0.3c0.6,0,1.2-0.1,1.8-0.2c1-0.2,2-0.5,3-1
	c0.8-0.4,1.6-0.9,2.3-1.5c0.5-0.5,1-1,1.5-1.5c0.5-0.7,0.9-1.4,1.3-2.2c0.2-0.4,0.3-0.9,0.4-1.3c0.1-0.4,0.2-0.9,0.2-1.4
	C30.4,37.1,30.3,36.5,30.3,35.9z"/>
<linearGradient id="SVGID_00000117665161019220826260000003299154657104284851_" gradientUnits="userSpaceOnUse" x1="6.4471" y1="329.7541" x2="5.1142" y2="295.7267" gradientTransform="matrix(1 0 0 -1 0 337.875)">
	<stop  offset="4.468880e-03" style="stop-color:#E1382F"/>
	<stop  offset="1" style="stop-color:#FB6C7E"/>
</linearGradient>
<path style="fill:url(#SVGID_00000117665161019220826260000003299154657104284851_);" d="M11.7,23.3c0,0-0.2-0.1-0.3-0.2
	c-1.7-1.4-3.2-3-4.4-4.8c-1-1.5-1.7-3.1-2-4.8c-0.4-2-0.2-3.9,0.7-5.8C6,7,6.4,6.3,6.9,5.7c0,0,0.1-0.1,0.1-0.1
	c-0.1,0-0.2,0.1-0.2,0.2C5.9,6.7,5.2,7.6,4.5,8.5c-0.7,1-1.2,2-1.7,3.1c-0.4,0.9-0.8,1.8-1.1,2.7c-0.5,1.5-0.9,3-1.2,4.5
	c-0.3,1.4-0.4,2.8-0.5,4.3c0,0.6,0,1.2,0,1.8c0.1,1,0.1,2,0.3,3s0.3,2,0.6,2.9c0.6,1.9,1.4,3.8,2.5,5.6c0.5,0.9,1.1,1.8,1.8,2.6
	c0.4,0.5,0.9,1,1.3,1.5c0.4,0.5,0.7,0.9,1.2,1.3C8.1,42.2,8.5,42.6,9,43c0.4,0.3,0.8,0.6,1.2,0.9C5.7,31.6,11.7,23.3,11.7,23.3z"/>
<path class="st4" d="M59.3,32.9c-2.7,0-5-0.9-6.8-2.7c-1.8-1.8-2.7-4.1-2.7-6.9c0-2.8,0.9-5.1,2.7-6.9c1.8-1.8,4.1-2.7,7-2.7
	c1.8,0,3.5,0.4,5,1.3c1.5,0.8,2.6,2,3.3,3.5l-1.7,1c-0.6-1.2-1.5-2.1-2.7-2.8c-1.2-0.7-2.5-1-3.9-1c-2.2,0-4,0.7-5.4,2.2
	c-1.4,1.5-2.1,3.3-2.1,5.6c0,2.3,0.7,4.1,2.1,5.5c1.4,1.4,3.1,2.2,5.3,2.2c1.4,0,2.7-0.3,3.9-1.1c1.2-0.7,2.1-1.6,2.7-2.7l1.7,1
	c-0.7,1.4-1.8,2.5-3.4,3.4C62.7,32.5,61.1,32.9,59.3,32.9z"/>
<path class="st4" d="M69.5,23.3c0-2.7,0.9-5,2.7-6.8c1.8-1.9,4.1-2.8,6.9-2.8c2.7,0,5,0.9,6.9,2.8c1.8,1.8,2.7,4.1,2.7,6.8
	c0,2.7-0.9,5-2.7,6.9c-1.8,1.9-4.1,2.8-6.9,2.8c-2.7,0-5-0.9-6.9-2.8C70.4,28.4,69.5,26.1,69.5,23.3z M79.1,31.1
	c2.2,0,4-0.7,5.4-2.2c1.4-1.5,2.1-3.4,2.1-5.5c0-2.2-0.7-4-2.1-5.5c-1.4-1.5-3.2-2.2-5.4-2.2c-2.1,0-3.9,0.8-5.4,2.3
	c-1.4,1.5-2.1,3.3-2.1,5.5s0.7,4,2.1,5.5C75.2,30.3,77,31.1,79.1,31.1z"/>
<path class="st4" d="M94.3,6.6v26h-2.1v-26H94.3z"/>
<path class="st4" d="M97.8,23.3c0-2.7,0.9-5,2.7-6.8c1.8-1.9,4.1-2.8,6.9-2.8c2.7,0,5,0.9,6.9,2.8c1.8,1.8,2.7,4.1,2.7,6.8
	c0,2.7-0.9,5-2.7,6.9c-1.8,1.9-4.1,2.8-6.9,2.8c-2.7,0-5-0.9-6.9-2.8C98.7,28.4,97.8,26.1,97.8,23.3z M107.4,31.1
	c2.2,0,4-0.7,5.4-2.2c1.4-1.5,2.1-3.4,2.1-5.5c0-2.2-0.7-4-2.1-5.5c-1.4-1.5-3.2-2.2-5.4-2.2c-2.1,0-3.9,0.8-5.4,2.3
	c-1.4,1.5-2.1,3.3-2.1,5.5s0.7,4,2.1,5.5C103.5,30.3,105.3,31.1,107.4,31.1z"/>
<path class="st4" d="M138.8,29.3l6.5-15.2h2.3l-8.2,18.4h-1.3L130,14.1h2.3L138.8,29.3z"/>
<path class="st4" d="M166,22.5c0,0.2,0,0.8-0.1,1.6h-15.6c0.2,2.1,0.9,3.7,2.2,5c1.3,1.2,3.1,1.9,5.3,1.9c1.2,0,2.4-0.2,3.7-0.6
	c1.2-0.4,2.3-0.9,3.1-1.6l1,1.6c-1,0.7-2.1,1.3-3.5,1.8c-1.4,0.5-2.8,0.7-4.3,0.7c-3.2,0-5.6-0.9-7.2-2.8c-1.6-1.9-2.4-4.2-2.4-6.8
	c0-2.8,0.8-5.1,2.5-6.9c1.7-1.8,3.9-2.7,6.7-2.7c2.5,0,4.5,0.8,6.1,2.4C165.2,17.7,166,19.8,166,22.5z M157.4,15.6
	c-1.9,0-3.5,0.6-4.8,1.8c-1.3,1.2-2,2.8-2.2,4.9h13.5c0-2-0.6-3.6-1.8-4.9C160.9,16.2,159.3,15.6,157.4,15.6z"/>
<path class="st4" d="M185.7,32.9c-1.4,0-2.7-0.3-3.8-1c-1.2-0.7-2-1.7-2.7-3l1.7-1c1.1,2.1,2.7,3.2,4.9,3.2c1.2,0,2.2-0.3,3-1
	c0.8-0.7,1.2-1.5,1.2-2.5c0-1.2-0.8-2.2-2.4-3c-0.5-0.2-1.2-0.5-2.2-0.9c-1.2-0.5-1.9-0.8-2.2-1c-2-1-2.9-2.4-2.9-4.3
	c0-1.4,0.5-2.6,1.5-3.5c1-0.9,2.4-1.4,4.1-1.4c2.5,0,4.4,1,5.6,2.9l-1.4,1.2c-0.9-1.5-2.3-2.2-4.1-2.2c-1.1,0-2,0.3-2.7,0.8
	c-0.6,0.6-1,1.3-1,2.2c0,1.2,0.7,2.2,2,2.8l2.1,0.9c1.3,0.5,2.1,0.9,2.5,1.1c2.2,1,3.2,2.5,3.2,4.4c0,1.5-0.6,2.8-1.8,3.9
	C189.1,32.4,187.6,32.9,185.7,32.9z"/>
<path class="st4" d="M211.9,22.5c0,0.2,0,0.8-0.1,1.6h-15.6c0.2,2.1,0.9,3.7,2.2,5c1.3,1.2,3.1,1.9,5.3,1.9c1.2,0,2.4-0.2,3.7-0.6
	c1.2-0.4,2.3-0.9,3.1-1.6l1,1.6c-0.9,0.7-2.1,1.3-3.5,1.8c-1.4,0.5-2.8,0.7-4.3,0.7c-3.2,0-5.6-0.9-7.2-2.8
	c-1.6-1.9-2.4-4.2-2.4-6.8c0-2.8,0.8-5.1,2.5-6.9c1.7-1.8,3.9-2.7,6.7-2.7c2.5,0,4.5,0.8,6.2,2.4C211.1,17.7,211.9,19.8,211.9,22.5z
	 M203.3,15.6c-1.9,0-3.5,0.6-4.8,1.8c-1.3,1.2-2,2.8-2.2,4.9h13.5c0-2-0.6-3.6-1.8-4.9C206.8,16.2,205.2,15.6,203.3,15.6z"/>
<path class="st4" d="M171.8,32.5h-2v-9c0-4.9,3.8-9.1,8.8-9.4c0.3,0,0.5,0,0.8,0v2c-0.2,0-0.4,0-0.6,0c-3.9,0.3-6.9,3.6-6.9,7.4
	L171.8,32.5L171.8,32.5z"/>
<path class="st4" d="M121.5,32.5h-2v-9c0-4.9,3.8-9.1,8.7-9.4c0.3,0,0.5,0,0.8,0v2c-0.2,0-0.4,0-0.6,0c-3.9,0.3-6.9,3.6-6.9,7.4
	L121.5,32.5L121.5,32.5z"/>
</svg>
